<?xml version="1.0" encoding="utf-8"?>
<!-- Generator: Adobe Illustrator 27.5.0, SVG Export Plug-In . SVG Version: 6.00 Build 0)  -->
<svg version="1.1" xmlns="http://www.w3.org/2000/svg" xmlns:xlink="http://www.w3.org/1999/xlink" x="0px" y="0px"
	 viewBox="0 0 750 500" style="enable-background:new 0 0 750 500;" xml:space="preserve">
<g id="BACKGROUND">
	<radialGradient id="SVGID_1_" cx="370.446" cy="282.652" r="433.7698" gradientUnits="userSpaceOnUse">
		<stop  offset="0.0056" style="stop-color:#00C290"/>
		<stop  offset="1" style="stop-color:#15B18E"/>
	</radialGradient>
	<rect style="fill:url(#SVGID_1_);" width="750" height="500"/>
</g>
<g id="OBJECTS">
	<g>
		
			<linearGradient id="SVGID_00000038374020642470231580000009816661316413818009_" gradientUnits="userSpaceOnUse" x1="791.4388" y1="528.512" x2="154.0022" y2="92.9889">
			<stop  offset="0" style="stop-color:#71BAA2"/>
			<stop  offset="0.4109" style="stop-color:#4AC58A"/>
			<stop  offset="1" style="stop-color:#15D46A"/>
		</linearGradient>
		<path style="fill:url(#SVGID_00000038374020642470231580000009816661316413818009_);" d="M631.802,145.554
			c-42.103,56.949-47.204,138.603-100.449,185.301c-34.869,30.581-83.573,39.467-129.879,42.076s-93.604,0.275-138.126,13.268
			C206.194,402.878,157.802,446.065,132.965,500H750V78.815C703.803,84.008,659.516,108.068,631.802,145.554z"/>
		
			<linearGradient id="SVGID_00000034780258640001412930000009841747750856271547_" gradientUnits="userSpaceOnUse" x1="936.0901" y1="272.8564" x2="93.2223" y2="292.8124">
			<stop  offset="0" style="stop-color:#FFFFFF;stop-opacity:0"/>
			<stop  offset="1" style="stop-color:#FFFFFF"/>
		</linearGradient>
		<path style="fill:url(#SVGID_00000034780258640001412930000009841747750856271547_);" d="M197.387,418.294
			c59.919-22.576,124.925-19.6,187.711-24.819c29.595-2.46,60.268-6.082,87.455-18.809c23.333-10.923,41.448-29.132,55.247-50.628
			c13.796-21.492,23.552-45.247,33.43-68.703c11.26-26.74,23.34-53.125,38.734-77.78c30.037-48.106,74.24-90.509,130.964-103.624
			c6.286-1.453,12.655-2.472,19.071-3.119v-0.999c-55.356,5.606-102.592,40.9-135.257,84.364
			c-17.849,23.75-32.01,50.07-44.205,77.098c-11.006,24.393-20.273,49.585-32.683,73.332
			c-12.122,23.197-27.641,45.253-49.619,60.069c-25.768,17.372-57.325,23.031-87.658,26.324
			c-63.827,6.929-129.578,2.477-191.495,22.181c-26.386,8.397-51.545,21.242-71.99,40.122
			c-14.196,13.109-26.18,28.976-33.985,46.696h1.155c5.758-12.968,13.757-24.977,23.276-35.586
			C146.493,443.29,170.958,428.251,197.387,418.294z"/>
		
			<linearGradient id="SVGID_00000145045054192113958210000005366827019888487309_" gradientUnits="userSpaceOnUse" x1="165.9465" y1="-93.9289" x2="586.2053" y2="329.8521">
			<stop  offset="0" style="stop-color:#71BAA2"/>
			<stop  offset="0.4109" style="stop-color:#4AC58A"/>
			<stop  offset="1" style="stop-color:#15D46A"/>
		</linearGradient>
		<path style="fill:url(#SVGID_00000145045054192113958210000005366827019888487309_);" d="M137.788,216.663
			c84.412,72.738,209.867,94.121,313.608,53.452c33.878-13.281,65.775-32.968,89.614-60.459
			c26.885-31.005,42.39-70.645,49.693-111.028c5.872-32.474,6.72-65.587,5.794-98.627H31.891
			C37.194,82.272,75.185,162.718,137.788,216.663z"/>
		
			<linearGradient id="SVGID_00000052097393135183806480000012403021947211310493_" gradientUnits="userSpaceOnUse" x1="104.8892" y1="143.463" x2="609.5505" y2="143.463">
			<stop  offset="0" style="stop-color:#FFFFFF;stop-opacity:0"/>
			<stop  offset="1" style="stop-color:#FFFFFF"/>
		</linearGradient>
		<path style="fill:url(#SVGID_00000052097393135183806480000012403021947211310493_);" d="M505.065,236.795
			c-17.075,13.725-36.141,25.02-56.577,32.958c-23.634,9.18-48.789,13.932-74.042,15.528c-25.096,1.587-50.319,0.145-75.234-3.067
			c-25.725-3.317-51.332-8.678-75.545-18.146c-41.71-16.309-78.601-44.012-107.337-78.223c-3.622-4.313-7.112-8.734-10.48-13.248
			c-0.38-0.51-1.249-0.012-0.864,0.505c26.847,35.981,62.016,65.936,102.699,85.153c22.673,10.71,46.836,17.592,71.492,21.929
			c25.344,4.458,51.206,6.919,76.948,6.731c25.269-0.184,50.644-3.118,74.946-10.208c21.815-6.364,42.451-16.212,61.158-29.107
			c35.938-24.775,64.401-59.729,83.496-98.831c22.08-45.214,32.116-95.541,33.756-145.617c0.034-1.051,0.043-2.102,0.069-3.152
			h-0.993c-1.167,44.61-8.839,89.253-25.798,130.648C565.964,171.642,539.705,208.952,505.065,236.795z"/>
		<g>
			
				<linearGradient id="SVGID_00000136394313549082534100000000404506004194783160_" gradientUnits="userSpaceOnUse" x1="393.0177" y1="-111.8721" x2="-82.4172" y2="396.4322">
				<stop  offset="0" style="stop-color:#71BAA2"/>
				<stop  offset="0.4109" style="stop-color:#4AC58A"/>
				<stop  offset="1" style="stop-color:#15D46A"/>
			</linearGradient>
			<path style="fill:url(#SVGID_00000136394313549082534100000000404506004194783160_);" d="M84.016,440.961
				c41.106-18.366,62.219-71.992,44.666-113.452c-11.326-26.753-35.645-47.095-43.648-75.022
				c-10.104-35.262,9.976-74.201,40.487-94.562c30.511-20.361,69.015-25.069,105.64-23.046
				c36.625,2.023,72.664,10.156,109.225,13.126c36.56,2.97,74.978,0.328,106.976-17.606c40.841-22.891,66.14-70.892,61.941-117.521
				c-0.39-4.333-1.035-8.631-1.916-12.877H0v449.916C28.717,450.741,58.041,452.566,84.016,440.961z"/>
			
				<linearGradient id="SVGID_00000023251383257062162120000002513179435652922024_" gradientUnits="userSpaceOnUse" x1="511.3446" y1="368.3033" x2="831.8225" y2="596.0424">
				<stop  offset="0" style="stop-color:#71BAA2"/>
				<stop  offset="0.4109" style="stop-color:#4AC58A"/>
				<stop  offset="1" style="stop-color:#15D46A"/>
			</linearGradient>
			<path style="fill:url(#SVGID_00000023251383257062162120000002513179435652922024_);" d="M750,201.445
				c-41.323-7.119-86.517,5.904-115.365,36.673c-40.863,43.583-48.555,113.442-96.234,149.44
				c-26.697,20.157-61.542,25.873-94.969,27.148c-33.427,1.274-67.246-1.223-100.081,5.174
				c-48.504,9.449-92.736,39.024-120.142,80.12H750V201.445z"/>
		</g>
		
			<linearGradient id="SVGID_00000052094265471234197620000009544855640520987321_" gradientUnits="userSpaceOnUse" x1="690.558" y1="17.3478" x2="690.558" y2="159.7827">
			<stop  offset="0" style="stop-color:#71BAA2"/>
			<stop  offset="0.4109" style="stop-color:#4AC58A"/>
			<stop  offset="1" style="stop-color:#15D46A"/>
		</linearGradient>
		<path style="fill:url(#SVGID_00000052094265471234197620000009544855640520987321_);" d="M653.711,105.324
			c4.892,14.065,22.152,21.241,36.656,17.866c24.385-5.673,47.751-40.602,34.886-64.728
			C703.134,16.981,641.88,71.308,653.711,105.324z"/>
		
			<linearGradient id="SVGID_00000071548570863301146690000011526124077094726076_" gradientUnits="userSpaceOnUse" x1="130.5947" y1="440.808" x2="206.1743" y2="440.808">
			<stop  offset="0" style="stop-color:#71BAA2"/>
			<stop  offset="0.4109" style="stop-color:#4AC58A"/>
			<stop  offset="1" style="stop-color:#15D46A"/>
		</linearGradient>
		<path style="fill:url(#SVGID_00000071548570863301146690000011526124077094726076_);" d="M130.709,437.067
			c-1.224,15.077,7.462,30.488,20.997,37.243c13.534,6.754,31.074,4.429,42.378-5.623c17.113-15.217,15.922-45.121-2.707-58.747
			C169.271,393.768,132.925,409.783,130.709,437.067z"/>
		
			<linearGradient id="SVGID_00000163043853959867191030000010494856136820863376_" gradientUnits="userSpaceOnUse" x1="162.9528" y1="240.5101" x2="206.9099" y2="240.5101">
			<stop  offset="0" style="stop-color:#71BAA2"/>
			<stop  offset="0.4109" style="stop-color:#4AC58A"/>
			<stop  offset="1" style="stop-color:#15D46A"/>
		</linearGradient>
		<path style="fill:url(#SVGID_00000163043853959867191030000010494856136820863376_);" d="M163.132,235.748
			c-2.514,17.965,21.942,34.611,37.561,21.649c5.554-4.61,7.458-12.793,5.424-19.718c-2.033-6.925-7.544-12.516-14.051-15.638
			c-8.932-4.285-17.887-4.903-24.718,4.008C164.921,229.213,163.587,232.502,163.132,235.748z"/>
		
			<linearGradient id="SVGID_00000154421238458950877480000003316429307909949887_" gradientUnits="userSpaceOnUse" x1="626.1544" y1="45.4443" x2="651.5859" y2="45.4443">
			<stop  offset="0" style="stop-color:#71BAA2"/>
			<stop  offset="0.4109" style="stop-color:#4AC58A"/>
			<stop  offset="1" style="stop-color:#15D46A"/>
		</linearGradient>
		<path style="fill:url(#SVGID_00000154421238458950877480000003316429307909949887_);" d="M643.577,55.791
			c12.3-5.404,10.033-22.304-4.063-22.139C618.078,33.903,624.661,64.103,643.577,55.791z"/>
		
			<linearGradient id="SVGID_00000090258502697376790760000002461513425310321793_" gradientUnits="userSpaceOnUse" x1="251.7189" y1="253.5798" x2="919.6754" y2="527.1012">
			<stop  offset="0" style="stop-color:#FFFFFF;stop-opacity:0"/>
			<stop  offset="1" style="stop-color:#FFFFFF"/>
		</linearGradient>
		<path style="fill:url(#SVGID_00000090258502697376790760000002461513425310321793_);" d="M278.915,445.293
			c52.374-14.03,107.077-6.499,160.475-10.824c24.219-1.962,48.552-6.219,71.047-15.693c21.453-9.036,39.936-23.021,55.471-40.269
			c32.449-36.026,51.13-81.512,79.121-120.68c14.221-19.899,31.034-38.252,52.115-50.993c15.93-9.628,34.192-16.285,52.857-17.288
			v-1.055c-34.75,1.752-67.67,23.306-90.353,49.171c-32.68,37.265-51.319,84.126-80.9,123.596
			c-14.704,19.619-32.248,37.354-53.808,49.366c-22.192,12.364-47.254,18.515-72.321,21.525
			c-53.221,6.392-107.439-1.503-160.271,9.002c-37.051,7.367-75.31,26.294-96.086,58.849h1.262
			C215.63,472.254,247.24,453.779,278.915,445.293z"/>
		
			<linearGradient id="SVGID_00000181771552546049408760000012136428371882894998_" gradientUnits="userSpaceOnUse" x1="551.7689" y1="-100.6922" x2="-65.7089" y2="455.7421">
			<stop  offset="0" style="stop-color:#FFFFFF;stop-opacity:0"/>
			<stop  offset="1" style="stop-color:#FFFFFF"/>
		</linearGradient>
		<path style="fill:url(#SVGID_00000181771552546049408760000012136428371882894998_);" d="M71.013,439.758
			c13.887-0.834,28.19-3.828,40.029-11.456c12.022-7.746,19.855-19.988,22.363-34.025c5.858-32.794-14.001-61.47-33.013-86.03
			c-10.783-13.93-21.937-27.825-29.693-43.748c-7.165-14.709-10.59-30.685-8.763-47.018c1.721-15.377,7.72-30.319,17.248-42.522
			c9.617-12.317,22.829-21.334,37.367-26.881c29.1-11.104,61.569-9.418,92.021-6.696c38.356,3.428,76.662,7.47,114.997,11.124
			c35.986,3.431,73.656,6.254,108.446-5.777c25.976-8.983,48.421-26.623,64.618-48.689c16.322-22.237,26.491-49.197,27.77-76.827
			c0.32-6.916,0.056-13.839-0.756-20.714c-0.075-0.631-1.076-0.639-1,0c3.311,28.036-3.11,56.566-16.73,81.18
			c-13.588,24.557-34.301,45.36-59.499,57.917c-31.876,15.885-68.527,16.208-103.281,13.61
			c-38.148-2.851-76.225-7.194-114.299-10.887c-30.872-2.995-62.589-6.754-93.335-0.654c-14.155,2.809-27.939,7.936-39.791,16.282
			c-11.685,8.229-20.985,19.362-27.066,32.295c-6.025,12.814-8.926,27.128-8.084,41.279c0.94,15.788,6.939,30.586,15.034,44.015
			c17.472,28.986,45.329,52.769,54.801,86.176c4.237,14.943,4.524,31.823-2.318,46.061c-6.581,13.696-19.272,22.554-33.522,26.948
			c-14.374,4.432-29.67,4.837-44.567,3.787c-16.927-1.193-33.712-4.258-49.99-9.047v1.036c7.062,2.075,14.217,3.84,21.451,5.244
			C37.666,438.89,54.486,440.75,71.013,439.758z"/>
		<g>
			
				<linearGradient id="SVGID_00000176749056296972270970000009849249827898438046_" gradientUnits="userSpaceOnUse" x1="637.371" y1="394.1672" x2="759.9797" y2="510.5148">
				<stop  offset="0" style="stop-color:#FFFFFF;stop-opacity:0"/>
				<stop  offset="1" style="stop-color:#FFFFFF"/>
			</linearGradient>
			<path style="fill:url(#SVGID_00000176749056296972270970000009849249827898438046_);" d="M738.595,483.977h-3.718v-3.718
				c0-0.767-0.627-1.394-1.394-1.394c-0.767,0-1.394,0.627-1.394,1.394v3.718h-3.718c-0.767,0-1.394,0.627-1.394,1.394
				c0,0.767,0.627,1.394,1.394,1.394h3.718v3.718c0,0.767,0.628,1.394,1.394,1.394c0.767,0,1.394-0.627,1.394-1.394v-3.718h3.718
				c0.767,0,1.394-0.628,1.394-1.394C739.99,484.604,739.362,483.977,738.595,483.977z"/>
			
				<linearGradient id="SVGID_00000013909223572140401170000016483193868565020068_" gradientUnits="userSpaceOnUse" x1="648.923" y1="381.9937" x2="771.5314" y2="498.341">
				<stop  offset="0" style="stop-color:#FFFFFF;stop-opacity:0"/>
				<stop  offset="1" style="stop-color:#FFFFFF"/>
			</linearGradient>
			<path style="fill:url(#SVGID_00000013909223572140401170000016483193868565020068_);" d="M738.595,460.841h-3.718v-3.718
				c0-0.767-0.627-1.394-1.394-1.394c-0.767,0-1.394,0.628-1.394,1.394v3.718h-3.718c-0.767,0-1.394,0.628-1.394,1.394
				c0,0.767,0.627,1.394,1.394,1.394h3.718v3.718c0,0.767,0.628,1.394,1.394,1.394c0.767,0,1.394-0.627,1.394-1.394v-3.718h3.718
				c0.767,0,1.394-0.628,1.394-1.394C739.99,461.468,739.362,460.841,738.595,460.841z"/>
			
				<linearGradient id="SVGID_00000181774050618688455810000015999315765665324934_" gradientUnits="userSpaceOnUse" x1="660.4751" y1="369.8202" x2="783.0834" y2="486.1674">
				<stop  offset="0" style="stop-color:#FFFFFF;stop-opacity:0"/>
				<stop  offset="1" style="stop-color:#FFFFFF"/>
			</linearGradient>
			<path style="fill:url(#SVGID_00000181774050618688455810000015999315765665324934_);" d="M738.595,437.705h-3.718v-3.718
				c0-0.767-0.627-1.394-1.394-1.394c-0.767,0-1.394,0.627-1.394,1.394v3.718h-3.718c-0.767,0-1.394,0.627-1.394,1.394
				c0,0.767,0.627,1.394,1.394,1.394h3.718v3.718c0,0.767,0.628,1.394,1.394,1.394c0.767,0,1.394-0.628,1.394-1.394v-3.718h3.718
				c0.767,0,1.394-0.627,1.394-1.394C739.99,438.333,739.362,437.705,738.595,437.705z"/>
			
				<linearGradient id="SVGID_00000128476710420551939530000010474993479815769748_" gradientUnits="userSpaceOnUse" x1="672.027" y1="357.6465" x2="794.6357" y2="473.9941">
				<stop  offset="0" style="stop-color:#FFFFFF;stop-opacity:0"/>
				<stop  offset="1" style="stop-color:#FFFFFF"/>
			</linearGradient>
			<path style="fill:url(#SVGID_00000128476710420551939530000010474993479815769748_);" d="M728.37,417.358h3.718v3.718
				c0,0.767,0.628,1.394,1.394,1.394c0.767,0,1.394-0.627,1.394-1.394v-3.718h3.718c0.767,0,1.394-0.628,1.394-1.394
				s-0.628-1.394-1.394-1.394h-3.718v-3.718c0-0.767-0.627-1.394-1.394-1.394c-0.767,0-1.394,0.628-1.394,1.394v3.718h-3.718
				c-0.767,0-1.394,0.627-1.394,1.394S727.603,417.358,728.37,417.358z"/>
			
				<linearGradient id="SVGID_00000161597320751129406880000018336108129162411413_" gradientUnits="userSpaceOnUse" x1="627.3223" y1="404.7563" x2="749.9313" y2="521.1042">
				<stop  offset="0" style="stop-color:#FFFFFF;stop-opacity:0"/>
				<stop  offset="1" style="stop-color:#FFFFFF"/>
			</linearGradient>
			<path style="fill:url(#SVGID_00000161597320751129406880000018336108129162411413_);" d="M717.388,483.977h-3.718v-3.718
				c0-0.767-0.628-1.394-1.394-1.394c-0.767,0-1.394,0.627-1.394,1.394v3.718h-3.718c-0.767,0-1.394,0.627-1.394,1.394
				c0,0.767,0.628,1.394,1.394,1.394h3.718v3.718c0,0.767,0.627,1.394,1.394,1.394c0.767,0,1.394-0.627,1.394-1.394v-3.718h3.718
				c0.767,0,1.394-0.628,1.394-1.394C718.782,484.604,718.154,483.977,717.388,483.977z"/>
			
				<linearGradient id="SVGID_00000039835091606525864850000002599741283971825308_" gradientUnits="userSpaceOnUse" x1="638.8745" y1="392.5829" x2="761.4832" y2="508.9306">
				<stop  offset="0" style="stop-color:#FFFFFF;stop-opacity:0"/>
				<stop  offset="1" style="stop-color:#FFFFFF"/>
			</linearGradient>
			<path style="fill:url(#SVGID_00000039835091606525864850000002599741283971825308_);" d="M717.388,460.841h-3.718v-3.718
				c0-0.767-0.628-1.394-1.394-1.394c-0.767,0-1.394,0.628-1.394,1.394v3.718h-3.718c-0.767,0-1.394,0.628-1.394,1.394
				c0,0.767,0.628,1.394,1.394,1.394h3.718v3.718c0,0.767,0.627,1.394,1.394,1.394c0.767,0,1.394-0.627,1.394-1.394v-3.718h3.718
				c0.767,0,1.394-0.628,1.394-1.394C718.782,461.468,718.154,460.841,717.388,460.841z"/>
			
				<linearGradient id="SVGID_00000147201866010556472580000003775428550969944219_" gradientUnits="userSpaceOnUse" x1="650.4264" y1="380.4093" x2="773.035" y2="496.7569">
				<stop  offset="0" style="stop-color:#FFFFFF;stop-opacity:0"/>
				<stop  offset="1" style="stop-color:#FFFFFF"/>
			</linearGradient>
			<path style="fill:url(#SVGID_00000147201866010556472580000003775428550969944219_);" d="M717.388,437.705h-3.718v-3.718
				c0-0.767-0.628-1.394-1.394-1.394c-0.767,0-1.394,0.627-1.394,1.394v3.718h-3.718c-0.767,0-1.394,0.627-1.394,1.394
				c0,0.767,0.628,1.394,1.394,1.394h3.718v3.718c0,0.767,0.627,1.394,1.394,1.394c0.767,0,1.394-0.628,1.394-1.394v-3.718h3.718
				c0.767,0,1.394-0.627,1.394-1.394C718.782,438.333,718.154,437.705,717.388,437.705z"/>
			
				<linearGradient id="SVGID_00000047057606367891679650000003609940599233365174_" gradientUnits="userSpaceOnUse" x1="617.274" y1="415.3459" x2="739.8826" y2="531.6934">
				<stop  offset="0" style="stop-color:#FFFFFF;stop-opacity:0"/>
				<stop  offset="1" style="stop-color:#FFFFFF"/>
			</linearGradient>
			<path style="fill:url(#SVGID_00000047057606367891679650000003609940599233365174_);" d="M696.18,483.977h-3.718v-3.718
				c0-0.767-0.628-1.394-1.394-1.394c-0.767,0-1.394,0.627-1.394,1.394v3.718h-3.718c-0.767,0-1.394,0.627-1.394,1.394
				c0,0.767,0.627,1.394,1.394,1.394h3.718v3.718c0,0.767,0.628,1.394,1.394,1.394c0.767,0,1.394-0.627,1.394-1.394v-3.718h3.718
				c0.767,0,1.394-0.628,1.394-1.394C697.574,484.604,696.947,483.977,696.18,483.977z"/>
			
				<linearGradient id="SVGID_00000008142605660420978310000013454875694228293268_" gradientUnits="userSpaceOnUse" x1="628.826" y1="403.1723" x2="751.435" y2="519.5203">
				<stop  offset="0" style="stop-color:#FFFFFF;stop-opacity:0"/>
				<stop  offset="1" style="stop-color:#FFFFFF"/>
			</linearGradient>
			<path style="fill:url(#SVGID_00000008142605660420978310000013454875694228293268_);" d="M696.18,460.841h-3.718v-3.718
				c0-0.767-0.628-1.394-1.394-1.394c-0.767,0-1.394,0.628-1.394,1.394v3.718h-3.718c-0.767,0-1.394,0.628-1.394,1.394
				c0,0.767,0.627,1.394,1.394,1.394h3.718v3.718c0,0.767,0.628,1.394,1.394,1.394c0.767,0,1.394-0.627,1.394-1.394v-3.718h3.718
				c0.767,0,1.394-0.628,1.394-1.394C697.574,461.468,696.947,460.841,696.18,460.841z"/>
			
				<linearGradient id="SVGID_00000068667659660103256080000011600097210456209822_" gradientUnits="userSpaceOnUse" x1="607.2255" y1="425.9352" x2="729.8341" y2="542.2828">
				<stop  offset="0" style="stop-color:#FFFFFF;stop-opacity:0"/>
				<stop  offset="1" style="stop-color:#FFFFFF"/>
			</linearGradient>
			<path style="fill:url(#SVGID_00000068667659660103256080000011600097210456209822_);" d="M674.972,483.977h-3.718v-3.718
				c0-0.767-0.627-1.394-1.394-1.394c-0.767,0-1.394,0.627-1.394,1.394v3.718h-3.718c-0.767,0-1.394,0.627-1.394,1.394
				c0,0.767,0.628,1.394,1.394,1.394h3.718v3.718c0,0.767,0.627,1.394,1.394,1.394c0.767,0,1.394-0.627,1.394-1.394v-3.718h3.718
				c0.767,0,1.394-0.628,1.394-1.394C676.367,484.604,675.739,483.977,674.972,483.977z"/>
		</g>
		<g>
			
				<linearGradient id="SVGID_00000060713831914790081490000007970440834782753960_" gradientUnits="userSpaceOnUse" x1="263.526" y1="-247.7605" x2="330.439" y2="-178.4996" gradientTransform="matrix(-1 0 0 -1 458.5395 -43.4679)">
				<stop  offset="0" style="stop-color:#FFFFFF;stop-opacity:0"/>
				<stop  offset="1" style="stop-color:#FFFFFF"/>
			</linearGradient>
			<path style="fill:url(#SVGID_00000060713831914790081490000007970440834782753960_);" d="M12.862,22.436h3.718v3.718
				c0,0.767,0.628,1.394,1.394,1.394c0.767,0,1.394-0.628,1.394-1.394v-3.718h3.718c0.767,0,1.394-0.627,1.394-1.394
				c0-0.767-0.627-1.394-1.394-1.394h-3.718v-3.718c0-0.767-0.627-1.394-1.394-1.394c-0.767,0-1.394,0.627-1.394,1.394v3.718h-3.718
				c-0.767,0-1.394,0.628-1.394,1.394C11.467,21.808,12.095,22.436,12.862,22.436z"/>
			
				<linearGradient id="SVGID_00000116218498955721891210000009358688842864829353_" gradientUnits="userSpaceOnUse" x1="275.0871" y1="-258.9294" x2="342.0002" y2="-189.6685" gradientTransform="matrix(-1 0 0 -1 458.5395 -43.4679)">
				<stop  offset="0" style="stop-color:#FFFFFF;stop-opacity:0"/>
				<stop  offset="1" style="stop-color:#FFFFFF"/>
			</linearGradient>
			<path style="fill:url(#SVGID_00000116218498955721891210000009358688842864829353_);" d="M12.862,45.571h3.718v3.718
				c0,0.767,0.628,1.394,1.394,1.394c0.767,0,1.394-0.627,1.394-1.394v-3.718h3.718c0.767,0,1.394-0.627,1.394-1.394
				c0-0.767-0.627-1.394-1.394-1.394h-3.718v-3.718c0-0.767-0.627-1.394-1.394-1.394c-0.767,0-1.394,0.627-1.394,1.394v3.718h-3.718
				c-0.767,0-1.394,0.627-1.394,1.394C11.467,44.944,12.095,45.571,12.862,45.571z"/>
			
				<linearGradient id="SVGID_00000160876702994455280360000009898104797270767515_" gradientUnits="userSpaceOnUse" x1="286.6483" y1="-270.0982" x2="353.5612" y2="-200.8374" gradientTransform="matrix(-1 0 0 -1 458.5395 -43.4679)">
				<stop  offset="0" style="stop-color:#FFFFFF;stop-opacity:0"/>
				<stop  offset="1" style="stop-color:#FFFFFF"/>
			</linearGradient>
			<path style="fill:url(#SVGID_00000160876702994455280360000009898104797270767515_);" d="M12.862,68.707h3.718v3.718
				c0,0.767,0.628,1.394,1.394,1.394c0.767,0,1.394-0.627,1.394-1.394v-3.718h3.718c0.767,0,1.394-0.627,1.394-1.394
				s-0.627-1.394-1.394-1.394h-3.718V62.2c0-0.767-0.627-1.394-1.394-1.394c-0.767,0-1.394,0.628-1.394,1.394v3.718h-3.718
				c-0.767,0-1.394,0.627-1.394,1.394S12.095,68.707,12.862,68.707z"/>
			
				<linearGradient id="SVGID_00000041991296221676281810000004736456834410892954_" gradientUnits="userSpaceOnUse" x1="298.2088" y1="-281.2677" x2="365.1219" y2="-212.0067" gradientTransform="matrix(-1 0 0 -1 458.5395 -43.4679)">
				<stop  offset="0" style="stop-color:#FFFFFF;stop-opacity:0"/>
				<stop  offset="1" style="stop-color:#FFFFFF"/>
			</linearGradient>
			<path style="fill:url(#SVGID_00000041991296221676281810000004736456834410892954_);" d="M23.087,89.054h-3.718v-3.718
				c0-0.767-0.627-1.394-1.394-1.394c-0.767,0-1.394,0.627-1.394,1.394v3.718h-3.718c-0.767,0-1.394,0.627-1.394,1.394
				c0,0.767,0.627,1.394,1.394,1.394h3.718v3.718c0,0.767,0.628,1.394,1.394,1.394c0.767,0,1.394-0.628,1.394-1.394v-3.718h3.718
				c0.767,0,1.394-0.627,1.394-1.394C24.481,89.681,23.854,89.054,23.087,89.054z"/>
			
				<linearGradient id="SVGID_00000024699439750015786900000005595390412202868130_" gradientUnits="userSpaceOnUse" x1="252.5567" y1="-237.1628" x2="319.4699" y2="-167.9018" gradientTransform="matrix(-1 0 0 -1 458.5395 -43.4679)">
				<stop  offset="0" style="stop-color:#FFFFFF;stop-opacity:0"/>
				<stop  offset="1" style="stop-color:#FFFFFF"/>
			</linearGradient>
			<path style="fill:url(#SVGID_00000024699439750015786900000005595390412202868130_);" d="M34.069,22.436h3.718v3.718
				c0,0.767,0.627,1.394,1.394,1.394c0.767,0,1.394-0.628,1.394-1.394v-3.718h3.718c0.767,0,1.394-0.627,1.394-1.394
				c0-0.767-0.628-1.394-1.394-1.394h-3.718v-3.718c0-0.767-0.627-1.394-1.394-1.394c-0.767,0-1.394,0.627-1.394,1.394v3.718h-3.718
				c-0.767,0-1.394,0.628-1.394,1.394C32.675,21.808,33.303,22.436,34.069,22.436z"/>
			
				<linearGradient id="SVGID_00000015337704974039959040000005570614915452727720_" gradientUnits="userSpaceOnUse" x1="264.1178" y1="-248.3318" x2="331.0309" y2="-179.0708" gradientTransform="matrix(-1 0 0 -1 458.5395 -43.4679)">
				<stop  offset="0" style="stop-color:#FFFFFF;stop-opacity:0"/>
				<stop  offset="1" style="stop-color:#FFFFFF"/>
			</linearGradient>
			<path style="fill:url(#SVGID_00000015337704974039959040000005570614915452727720_);" d="M34.069,45.571h3.718v3.718
				c0,0.767,0.627,1.394,1.394,1.394c0.767,0,1.394-0.627,1.394-1.394v-3.718h3.718c0.767,0,1.394-0.627,1.394-1.394
				c0-0.767-0.628-1.394-1.394-1.394h-3.718v-3.718c0-0.767-0.627-1.394-1.394-1.394c-0.767,0-1.394,0.627-1.394,1.394v3.718h-3.718
				c-0.767,0-1.394,0.627-1.394,1.394C32.675,44.944,33.303,45.571,34.069,45.571z"/>
			
				<linearGradient id="SVGID_00000054248566455380152510000009085940032738359704_" gradientUnits="userSpaceOnUse" x1="275.6789" y1="-259.5006" x2="342.5919" y2="-190.2398" gradientTransform="matrix(-1 0 0 -1 458.5395 -43.4679)">
				<stop  offset="0" style="stop-color:#FFFFFF;stop-opacity:0"/>
				<stop  offset="1" style="stop-color:#FFFFFF"/>
			</linearGradient>
			<path style="fill:url(#SVGID_00000054248566455380152510000009085940032738359704_);" d="M34.069,68.707h3.718v3.718
				c0,0.767,0.627,1.394,1.394,1.394c0.767,0,1.394-0.627,1.394-1.394v-3.718h3.718c0.767,0,1.394-0.627,1.394-1.394
				s-0.628-1.394-1.394-1.394h-3.718V62.2c0-0.767-0.627-1.394-1.394-1.394c-0.767,0-1.394,0.628-1.394,1.394v3.718h-3.718
				c-0.767,0-1.394,0.627-1.394,1.394S33.303,68.707,34.069,68.707z"/>
			
				<linearGradient id="SVGID_00000008831229480688434310000003863602586233028264_" gradientUnits="userSpaceOnUse" x1="241.5874" y1="-226.5652" x2="308.5005" y2="-157.3042" gradientTransform="matrix(-1 0 0 -1 458.5395 -43.4679)">
				<stop  offset="0" style="stop-color:#FFFFFF;stop-opacity:0"/>
				<stop  offset="1" style="stop-color:#FFFFFF"/>
			</linearGradient>
			<path style="fill:url(#SVGID_00000008831229480688434310000003863602586233028264_);" d="M55.277,22.436h3.718v3.718
				c0,0.767,0.628,1.394,1.395,1.394c0.767,0,1.394-0.628,1.394-1.394v-3.718h3.718c0.767,0,1.394-0.627,1.394-1.394
				c0-0.767-0.628-1.394-1.394-1.394h-3.718v-3.718c0-0.767-0.627-1.394-1.394-1.394c-0.767,0-1.395,0.627-1.395,1.394v3.718h-3.718
				c-0.767,0-1.394,0.628-1.394,1.394C53.883,21.808,54.51,22.436,55.277,22.436z"/>
			
				<linearGradient id="SVGID_00000026861532084544271620000013803343895507514021_" gradientUnits="userSpaceOnUse" x1="253.1485" y1="-237.7342" x2="320.0616" y2="-168.4732" gradientTransform="matrix(-1 0 0 -1 458.5395 -43.4679)">
				<stop  offset="0" style="stop-color:#FFFFFF;stop-opacity:0"/>
				<stop  offset="1" style="stop-color:#FFFFFF"/>
			</linearGradient>
			<path style="fill:url(#SVGID_00000026861532084544271620000013803343895507514021_);" d="M55.277,45.571h3.718v3.718
				c0,0.767,0.628,1.394,1.395,1.394c0.767,0,1.394-0.627,1.394-1.394v-3.718h3.718c0.767,0,1.394-0.627,1.394-1.394
				c0-0.767-0.628-1.394-1.394-1.394h-3.718v-3.718c0-0.767-0.627-1.394-1.394-1.394c-0.767,0-1.395,0.627-1.395,1.394v3.718h-3.718
				c-0.767,0-1.394,0.627-1.394,1.394C53.883,44.944,54.51,45.571,55.277,45.571z"/>
			
				<linearGradient id="SVGID_00000086678980394127410080000005847267043647795888_" gradientUnits="userSpaceOnUse" x1="230.6176" y1="-215.9681" x2="297.5307" y2="-146.7071" gradientTransform="matrix(-1 0 0 -1 458.5395 -43.4679)">
				<stop  offset="0" style="stop-color:#FFFFFF;stop-opacity:0"/>
				<stop  offset="1" style="stop-color:#FFFFFF"/>
			</linearGradient>
			<path style="fill:url(#SVGID_00000086678980394127410080000005847267043647795888_);" d="M76.485,22.436h3.718v3.718
				c0,0.767,0.627,1.394,1.394,1.394s1.394-0.628,1.394-1.394v-3.718h3.718c0.767,0,1.395-0.627,1.395-1.394
				c0-0.767-0.628-1.394-1.395-1.394h-3.718v-3.718c0-0.767-0.627-1.394-1.394-1.394s-1.394,0.627-1.394,1.394v3.718h-3.718
				c-0.767,0-1.394,0.628-1.394,1.394C75.09,21.808,75.718,22.436,76.485,22.436z"/>
		</g>
	</g>
</g>
</svg>
